<svg width="20" height="16" viewBox="0 0 20 16" fill="none" xmlns="http://www.w3.org/2000/svg">
<path d="M19.33 1.83057C18.6187 2.13985 17.8551 2.35248 17.0529 2.44527C17.8725 1.96201 18.4988 1.19655 18.7965 0.286103C18.0155 0.74126 17.1633 1.06147 16.2759 1.23327C15.9026 0.841984 15.4534 0.530836 14.9559 0.318806C14.4584 0.106777 13.923 -0.00169046 13.3822 1.99167e-05C11.1921 1.99167e-05 9.41757 1.74939 9.41757 3.90468C9.41757 4.2101 9.45237 4.50778 9.52003 4.79386C7.94913 4.71926 6.41103 4.31804 5.00386 3.61579C3.59669 2.91353 2.35135 1.92567 1.3473 0.71523C0.99465 1.30886 0.80898 1.98675 0.809927 2.67723C0.809927 4.03033 1.51161 5.22879 2.57476 5.9266C1.94546 5.90686 1.32963 5.73933 0.777066 5.43755V5.48588C0.783038 6.39334 1.10336 7.27069 1.68348 7.96853C2.26361 8.66637 3.06768 9.14157 3.95878 9.31322C3.37378 9.4679 2.76166 9.49035 2.16689 9.37894C2.42616 10.1596 2.92207 10.8402 3.58576 11.3262C4.24945 11.8122 5.048 12.0795 5.87052 12.0909C4.45936 13.1784 2.72677 13.7659 0.945237 13.7611C0.626292 13.7611 0.311213 13.7417 0 13.7069C1.81793 14.8576 3.92585 15.4671 6.07735 15.464C13.3725 15.464 17.3603 9.51425 17.3603 4.35314L17.3467 3.84669C18.1244 3.30019 18.7964 2.61708 19.33 1.83057Z" fill="black"/>
</svg>
